<?xml version="1.0" encoding="UTF-8" standalone="no"?>
<svg
   xmlns:dc="http://purl.org/dc/elements/1.1/"
   xmlns:cc="http://creativecommons.org/ns#"
   xmlns:rdf="http://www.w3.org/1999/02/22-rdf-syntax-ns#"
   xmlns:svg="http://www.w3.org/2000/svg"
   xmlns="http://www.w3.org/2000/svg"
   width="42.333332mm"
   height="42.333332mm"
   viewBox="0 0 42.333332 42.333332"
   version="1.1"
   id="svg28">
  <defs
     id="defs22" />
  <metadata
     id="metadata25">
    <rdf:RDF>
      <cc:Work
         rdf:about="">
        <dc:format>image/svg+xml</dc:format>
        <dc:type
           rdf:resource="http://purl.org/dc/dcmitype/StillImage" />
        <dc:title></dc:title>
      </cc:Work>
    </rdf:RDF>
  </metadata>
  <g
     id="layer1"
     transform="translate(-174.95247,-0.72034353)">
    <g
       id="g88">
      <path
         style="fill:#965e41;stroke-width:0.0846667"
         d="m 174.95247,21.88701 c 0,-21.16666647 0,-21.16666647 21.16667,-21.16666647 21.16666,0 21.16666,0 21.16666,21.16666647 0,21.166666 0,21.166666 -21.16666,21.166666 -21.16667,0 -21.16667,0 -21.16667,-21.166666 z"
         id="path104" />
      <path
         style="fill:#8a5439;stroke-width:0.0846667"
         d="m 174.95245,21.992843 c -2e-5,-21.06083281 -2e-5,-21.06083281 0.4445,-21.06893912 0.24449,-0.004458 0.65261,-0.0177032 0.90695,-0.0294327 1.0265,-0.0473406 1.21792,1.23996552 0.75984,5.10983452 -0.11053,0.93372 -0.0943,1.6917438 0.0499,2.3360376 0.0677,0.3026833 0.16302,1.1765635 0.21171,1.9419557 0.067,1.05379 0.12891,1.482894 0.25485,1.767596 0.0915,0.206785 0.16631,0.471045 0.16631,0.587244 0,0.182696 0.018,0.196298 0.13339,0.100567 0.0979,-0.08127 0.0888,-0.03338 -0.0345,0.180133 -0.26839,0.465064 -0.38824,1.157648 -0.27385,1.582465 0.16037,0.595567 0.34019,0.384827 0.34356,-0.402628 0.002,-0.537779 0.13723,-0.961463 0.47375,-1.487521 0.18749,-0.293098 0.24365,-0.437121 0.15757,-0.404087 -0.10928,0.04193 -0.10301,7.62e-4 0.0342,-0.22492 0.0924,-0.151936 0.14912,-0.325446 0.12605,-0.385577 -0.0231,-0.06013 -0.005,-0.17921 0.0412,-0.26462 0.0457,-0.08541 0.14747,-0.593213 0.22613,-1.128449 0.0787,-0.5352374 0.1989,-1.1065087 0.26719,-1.2694921 0.20816,-0.4967734 0.24311,-1.5726473 0.073,-2.2476899 -0.15761,-0.6255629 -0.18046,-1.476205 -0.0464,-1.7267358 0.0445,-0.083148 0.0963,-0.8707426 0.11518,-1.7502097 0.0588,-2.74422348 -0.81048,-2.44227746 7.10354,-2.46736469 6.8351,-0.0216671 6.8351,-0.0216671 6.87503,0.16933332 0.0709,0.33890897 0.10314,1.24933367 0.0443,1.24933367 -0.12403,0 -0.14409,0.9404075 -0.0327,1.532507 0.17138,0.9108978 0.6649,1.3929559 1.33974,1.30864 0.35004,-0.043735 0.47055,-0.027367 0.55593,0.075507 0.06,0.07224 0.15832,0.1313463 0.21859,0.1313463 0.0603,0 0.12645,0.047625 0.14707,0.1058334 0.0611,0.1723827 0.79881,-0.2730906 1.04817,-0.6329119 0.3402,-0.4909044 1.12978,-3.2395324 1.12978,-3.93289444 0,-0.0150481 0.77809,-0.0273602 1.7291,-0.0273602 2.10564,0 1.9509,-0.19047524 1.96036,2.41299994 0.0188,5.1605252 0.23981,6.2859486 1.26354,6.4329316 0.7038,0.1010488 0.77908,0.1813297 1.16806,1.2455315 0.48459,1.325764 1.34239,2.48014 1.82104,2.450648 1.25462,-0.0773 1.22378,-0.04537 1.19695,-1.239112 -0.0343,-1.524557 -0.0363,-1.499633 0.21344,-2.5404311 0.36566,-1.5235942 0.56411,-1.8690558 1.06533,-1.8544774 0.56492,0.016431 0.94694,0.5093437 1.01107,1.3045758 0.052,0.6449026 0.29255,0.3999577 0.39351,-0.4007075 0.028,-0.2219942 0.13716,-0.6131758 0.2426,-0.8692924 0.5642,-1.3704203 0.83652,-5.2969838 0.42285,-6.0969398 -0.42413,-0.82016843 -0.35375,-0.84572664 2.32882,-0.84572664 2.45533,0 2.45533,0 2.4556,0.74083324 4.2e-4,1.1412921 0.38145,2.9468795 0.66539,3.1530348 0.53397,0.3877005 0.66464,0.9323861 0.41655,1.7364651 -0.20472,0.6635377 -0.25674,1.8313247 -0.0966,2.1676898 0.0532,0.1116372 0.15708,0.3363268 0.23091,0.4993101 0.0738,0.1629833 0.13511,0.2635377 0.13617,0.223454 0.001,-0.040085 0.0748,0.017065 0.16397,0.127 0.18622,0.2297023 0.18841,0.2283857 0.37026,-0.223454 0.13557,-0.336845 0.13637,-0.3373004 0.14911,-0.084667 0.0127,0.2516429 0.0135,0.2520358 0.0842,0.042333 0.0898,-0.2662054 0.0318,3.547804 -0.0663,4.360333 -0.0419,0.346793 -0.18167,0.838647 -0.33698,1.185589 -0.54032,1.207089 -0.4388,2.076975 0.30106,2.579602 0.1833,0.124525 0.1833,0.124525 0.1833,12.975167 0,12.850642 0,12.850642 -21.16666,12.850642 -21.16667,0 -21.16667,0 -21.16669,-21.060833 z"
         id="path102" />
      <path
         style="fill:#774834;stroke-width:0.0846667"
         d="m 174.95359,30.967509 c 0.001,-13.031955 0.0353,-14.272192 0.42369,-15.403891 0.2953,-0.860488 0.67161,-0.880009 0.80448,-0.04173 0.0272,0.171302 0.10457,0.547888 0.17204,0.836859 0.0675,0.28897 0.12267,0.634219 0.12267,0.76722 0,0.352165 0.31824,1.510826 0.52602,1.915173 0.15516,0.301932 0.18098,0.511353 0.19433,1.575873 0.0165,1.318287 0.403,3.230232 0.77442,3.831201 0.19072,0.308599 0.71596,-0.552193 0.6927,-1.135244 -0.01,-0.24876 0.0118,-0.909491 0.0483,-1.468291 0.0656,-1.005355 0.0172,-1.527496 -0.21316,-2.296586 -0.0878,-0.29326 -0.0836,-0.395066 0.0264,-0.635 0.072,-0.157161 0.19947,-0.476247 0.28324,-0.70908 0.0838,-0.232834 0.18013,-0.461434 0.21412,-0.508 0.14588,-0.19983 0.24415,-0.836941 0.29383,-1.905 0.0383,-0.823954 0.12004,-1.41478 0.29273,-2.116667 0.13175,-0.535517 0.28343,-1.354667 0.33706,-1.820333 0.0536,-0.465667 0.1754,-1.341967 0.27061,-1.9473334 0.19111,-1.2150846 0.22303,-2.4384982 0.084,-3.2173333 -0.095,-0.5318131 -0.072,-4.9021306 0.0283,-5.4015264 0.12364,-0.61515791 -0.009,-0.56747337 1.57761,-0.56747337 1.39266,0 1.82878,0.0785813 1.61615,0.29120567 -0.17107,0.1710767 0.16792,3.8394971 0.39381,4.261576 0.0522,0.097581 0.0949,0.2942241 0.0949,0.4369854 0,0.1427613 0.0381,0.2595661 0.0847,0.2595661 0.0466,0 0.0847,-0.073606 0.0847,-0.163568 0,-0.089962 0.11415,-0.2448521 0.25367,-0.3441994 0.35003,-0.2492446 0.6932,-0.8671738 0.77646,-1.3981583 0.0383,-0.2443956 0.14524,-0.6108673 0.23758,-0.8143815 0.0924,-0.2035143 0.17089,-0.465276 0.17454,-0.5816927 0.009,-0.2827662 0.17044,-0.7002178 0.37808,-0.9768557 0.0931,-0.1240794 0.2949,-0.3931967 0.44838,-0.5980383 0.31109,-0.41521081 5.60529,-0.62483779 5.60529,-0.2219448 0,0.2085535 -0.40448,0.7808388 -0.55188,0.7808388 -0.30544,0 -0.49583,0.952895 -0.29562,1.4794948 0.21792,0.5731682 0.19385,1.1262237 -0.0774,1.7777127 -0.3771,0.9058239 0.0373,3.5913501 0.5092,3.2997154 0.0423,-0.026171 0.077,-0.00629 0.077,0.044176 0,0.050467 0.0857,0.1293901 0.1905,0.1753836 0.30714,0.1348255 0.74576,0.4134313 1.11581,0.708735 0.70262,0.5607101 1.09073,0.7274492 1.69327,0.7274492 0.62308,0 0.69649,0.5189765 0.45713,3.2317655 -0.2228,2.525055 0.93018,3.387558 1.62183,1.213234 0.10369,-0.325967 0.24689,-0.764117 0.31823,-0.973667 0.30057,-0.882871 0.35661,-1.370931 0.30284,-2.637604 -0.0527,-1.2406043 -0.0527,-1.2406043 0.22913,-1.7779997 0.15499,-0.2955674 0.31334,-0.7088454 0.3519,-0.9183954 0.17613,-0.9572787 0.17585,-0.9656656 -0.0513,-1.5246471 -0.34395,-0.846469 -0.34474,-1.0088437 -0.012,-2.4546861 0.50516,-2.1948172 1.77692,-4.02833302 2.05542,-2.9633332 0.0244,0.093133 0.0739,0.1693333 0.11002,0.1693333 0.13655,0 0.22275,0.5364499 0.37412,2.3283333 0.0197,0.2328333 0.0776,0.7555097 0.12879,1.1615031 0.067,0.5315614 0.0674,0.8984376 0.002,1.3107741 -0.0595,0.3723087 -0.0712,1.2395136 -0.0335,2.4791634 0.043,1.4135646 0.0294,2.0707563 -0.0524,2.5415593 -0.0607,0.34925 -0.10345,0.76835 -0.0949,0.931333 0.009,0.162983 0.0166,1.096433 0.0179,2.074333 0.002,1.526567 0.0313,1.927663 0.20727,2.836333 0.1127,0.582084 0.28469,1.51376 0.38219,2.070392 0.29941,1.709329 0.75074,2.081326 1.9453,1.603361 0.3234,-0.1294 0.47296,-0.127832 1.14648,0.01201 0.37646,0.07816 0.58316,-0.168114 0.44603,-0.531422 -0.16987,-0.450021 1.20002,-2.138343 1.73502,-2.138343 0.13161,0 0.15361,-0.03866 0.10838,-0.1905 -0.33825,-1.135436 -0.26099,-1.495939 0.31588,-1.474012 0.33061,0.01257 0.37037,0.04086 0.56748,0.403871 0.31006,0.570992 0.41428,0.667975 0.71782,0.667975 0.49094,0 0.80273,-0.303807 1.05739,-1.030333 0.17113,-0.488211 0.33483,-0.766646 0.65971,-1.122116 0.67786,-0.741686 0.77346,-1.076627 1.28271,-4.493884 0.27985,-1.8779051 0.43134,-3.3258133 0.43134,-4.1226449 0,-1.6545532 0.55924,-4.1713005 1.21456,-5.4658549 0.56999,-1.12598648 1.70466,-0.45978552 1.73081,1.0162031 0.0273,1.5428183 0.0863,2.0253314 0.3596,2.9419634 0.17128,0.5744322 0.18413,0.7452323 0.13471,1.7906887 -0.0452,0.9555327 -0.026,1.3074588 0.11055,2.0319999 0.34097,1.8090527 0.43736,3.3952497 0.26751,4.4021567 -0.17771,1.053551 -0.2067,3.042464 -0.0523,3.586154 0.0977,0.343847 0.16483,1.027815 0.20782,2.116667 0.0635,1.608666 0.0635,1.608666 0.60068,2.65377 0.51034,0.992908 0.53177,1.05845 0.42912,1.312334 -0.27598,0.682618 -0.35656,1.051105 -0.31764,1.452562 0.0559,0.576975 0.51727,1.982014 0.77591,2.363143 0.11622,0.171257 0.21131,0.383637 0.21131,0.471953 0,0.08832 0.0381,0.184124 0.0847,0.212904 0.0554,0.03427 0.0847,2.738435 0.0847,7.836663 0,7.784337 0,7.784337 -21.16666,7.784337 -21.16667,0 -21.16667,0 -21.16555,-12.086167 z"
         id="path100" />
      <path
         style="fill:#6b4231;stroke-width:0.0846667"
         d="m 174.95247,33.786843 c 0,-9.764683 0.006,-9.914244 0.38754,-10.368168 0.1983,-0.235667 0.54379,-0.400719 0.54379,-0.259787 0,0.03888 0.0497,0.12104 0.11056,0.182574 0.43369,0.43888 0.86837,1.746681 1.03354,3.109542 0.31501,2.599185 0.42205,3.152115 0.72533,3.746596 0.22429,0.439632 0.44577,0.550074 0.60683,0.30259 0.21174,-0.325367 0.65863,-1.97458 0.74497,-2.749259 0.22039,-1.977439 0.28056,-2.393908 0.42688,-2.954727 0.16701,-0.640117 0.18131,-2.807837 0.0328,-4.968913 -0.0637,-0.926491 -0.0606,-0.948787 0.27432,-2.003788 0.0694,-0.218728 0.15388,-1.046664 0.19858,-1.947333 0.0495,-0.996548 0.12849,-1.736316 0.21711,-2.032494 0.20776,-0.694322 0.53309,-2.286221 0.53665,-2.62583 0.002,-0.163625 0.15583,-0.849425 0.34249,-1.5240003 0.38955,-1.4077769 0.43517,-1.952404 0.22334,-2.6658357 -0.31341,-1.0555027 -0.38456,-4.8224187 -0.0993,-5.2577537 0.42034,-0.6415273 0.54971,-0.267941 0.60182,1.7378851 0.0237,0.9114611 0.10329,2.1220204 0.17693,2.6901317 0.0736,0.5681112 0.11418,1.1359839 0.0901,1.2619393 -0.028,0.1465376 0.0714,0.5368184 0.27618,1.0837369 0.44659,1.1930367 0.93657,3.7739817 1.06238,5.5960607 0.0999,1.446419 0.36591,1.919871 0.67037,1.192995 0.14143,-0.337675 0.31752,-0.706139 0.3913,-0.818808 0.32359,-0.494118 0.58403,-1.864159 0.58618,-3.08352 0.003,-1.8522218 1.05441,-3.5924942 1.81062,-2.9976638 0.79473,0.6251405 1.22959,3.3000858 0.76551,4.7089378 -0.17652,0.535891 -0.22997,0.913115 -0.28536,2.014059 -0.052,1.032422 -0.11354,1.495648 -0.25892,1.947333 -0.54031,1.678732 -0.55218,2.124053 -0.09,3.377099 0.1333,0.361402 0.2065,0.836834 0.26628,1.729324 0.16497,2.463148 1.14715,3.414648 2.15745,2.090072 0.35411,-0.46426 0.99606,-3.009148 1.08918,-4.317828 0.0298,-0.4191 0.0966,-1.107551 0.14839,-1.529891 0.0796,-0.648803 0.0725,-0.863786 -0.0455,-1.38622 -0.0822,-0.363768 -0.13966,-0.988759 -0.1397,-1.518109 -4e-5,-0.494879 -0.0555,-1.16648 -0.12334,-1.492447 -0.0678,-0.325967 -0.12872,-1.011767 -0.13538,-1.524 -0.007,-0.512233 -0.0155,-1.121833 -0.0196,-1.354666 -0.0182,-1.025056 0.1074,-1.3458956 0.56124,-1.4336611 0.98896,-0.1912535 1.58712,0.7141661 1.19884,1.8146611 -0.15988,0.45315 -0.16201,1.034016 -0.006,1.572132 0.0667,0.229644 0.14702,0.597281 0.17854,0.816973 0.0717,0.500034 0.1989,0.605824 0.79203,0.658894 0.86704,0.07758 1.53847,1.438409 1.58743,3.217334 0.0255,0.927624 0.68033,2.636491 1.32203,3.450166 0.42239,0.53558 1.06472,-0.337579 1.16383,-1.582051 0.0355,-0.44538 0.10247,-0.962182 0.14889,-1.148449 0.09,-0.36103 0.20685,-1.085016 0.3599,-2.229537 0.14437,-1.079613 0.75642,-2.554129 1.06019,-2.554129 0.50413,0 0.94701,3.304626 1.14035,8.509 0.0799,2.15165 0.33161,4.571783 0.5541,5.3282 0.0675,0.229644 0.12281,0.634553 0.12281,0.8998 0,0.888536 0.26008,0.833491 0.75729,-0.160273 0.77352,-1.546011 1.34825,-1.63697 1.96125,-0.310394 0.79241,1.714825 1.25571,1.882981 2.4717,0.89711 0.72829,-0.59047 1.86808,-2.641751 1.99876,-3.597181 0.0577,-0.422028 0.62208,-1.575596 0.77082,-1.575596 0.0392,0 0.21456,-0.238125 0.38971,-0.529167 0.17515,-0.291041 0.34745,-0.549288 0.3829,-0.573881 0.0354,-0.02459 0.18493,-0.424643 0.3322,-0.889 0.43641,-1.376046 1.16493,-3.539129 1.30438,-3.872878 0.0757,-0.181113 0.13007,-0.566993 0.13066,-0.926854 6e-4,-0.385729 0.095,-1.012771 0.25201,-1.674886 0.13805,-0.582084 0.30691,-1.439334 0.37525,-1.905 0.22282,-1.518477 0.37584,-2.697964 0.42838,-3.302 0.0284,-0.3259668 0.12734,-0.9546167 0.21998,-1.3970001 0.0926,-0.4423833 0.20392,-1.3758332 0.24729,-2.0743332 0.23184,-3.734176 1.35909,-3.5780436 1.52819,0.2116666 0.0384,0.8614833 0.1109,1.7187333 0.16103,1.905 0.26794,0.9957257 0.33444,3.5306407 0.13437,5.1223327 -0.0673,0.535517 -0.16488,1.773767 -0.21681,2.751667 -0.0519,0.9779 -0.14852,2.3495 -0.21464,3.048 -0.0661,0.6985 -0.14074,2.01295 -0.16584,2.921 -0.047,1.701783 -0.3074,4.472281 -0.46943,4.995333 -0.55339,1.786371 -0.15101,6.04653 0.64467,6.825364 0.33847,0.331301 0.69205,0.752607 0.78573,0.936237 0.33598,0.658576 1.71381,1.721065 2.23187,1.721065 0.39955,0 0.40694,0.05678 0.40694,3.126619 0,2.884715 0,2.884715 -21.16666,2.884715 -21.16667,0 -21.16667,0 -21.16667,-9.266833 z"
         id="path98" />
      <path
         style="fill:#643c2c;stroke-width:0.0846667"
         d="m 174.95247,35.041899 c 0,-8.011777 0,-8.011777 0.24945,-8.530167 0.1372,-0.285114 0.30671,-0.661264 0.37668,-0.835889 0.46924,-1.171009 1.0529,0.43555 1.23806,3.407833 0.0584,0.93783 0.14863,1.517503 0.38206,2.455333 0.24079,0.967365 0.32122,1.497128 0.3793,2.498535 0.0551,0.95035 0.12626,1.441476 0.28206,1.947334 0.15595,0.50633 0.21907,0.942641 0.25098,1.734798 0.0334,0.829344 0.0902,1.202645 0.26236,1.725306 0.12823,0.389261 0.22427,0.882809 0.23064,1.185334 0.0109,0.51836 0.0109,0.51836 0.0888,-0.102769 0.0428,-0.341621 0.15793,-0.817871 0.25581,-1.058334 0.14747,-0.362292 0.1888,-0.705585 0.24126,-2.003537 0.0348,-0.861484 0.11005,-1.909234 0.16717,-2.328334 0.0737,-0.540937 0.0824,-1.093594 0.0298,-1.904999 -0.11991,-1.850141 -0.0712,-3.315976 0.13772,-4.148667 0.0993,-0.395817 0.25271,-1.424517 0.34084,-2.286 0.0881,-0.861483 0.2191,-1.928283 0.29105,-2.370667 0.0719,-0.442383 0.1087,-0.908405 0.0817,-1.035605 -0.027,-0.1272 -0.0618,-0.813 -0.0773,-1.524 -0.0155,-0.711 -0.0694,-1.542528 -0.11963,-1.84784 -0.0984,-0.597685 -0.004,-1.255903 0.29013,-2.027221 0.10721,-0.280968 0.15333,-0.713971 0.17565,-1.649213 0.0166,-0.697517 0.0548,-1.326167 0.0848,-1.397 0.03,-0.07083 0.0842,-0.262137 0.12044,-0.42512 0.23426,-1.05373 0.68278,-1.709412 1.05372,-1.5404 0.37843,0.172423 0.43529,0.503129 0.62882,3.657066 0.062,1.010795 0.12056,1.362278 0.33133,1.989667 0.1408,0.4191 0.33453,1.032126 0.43051,1.36228 0.096,0.330153 0.24656,0.692103 0.33462,0.804333 0.0881,0.112229 0.30404,0.519162 0.47993,0.904293 0.29388,0.643486 0.33133,0.689806 0.46205,0.5715 0.21978,-0.198897 0.25603,-0.159976 0.25463,0.273427 -0.002,0.512526 -0.10954,0.712009 -0.24658,0.455939 -0.14176,-0.264883 -0.24082,-0.222501 -0.3527,0.150898 -0.0606,0.20235 -0.14014,0.316026 -0.20394,0.291546 -0.0576,-0.02212 -0.12804,0.04751 -0.15687,0.155162 -0.1849,0.69036 0.42437,2.118912 0.83629,1.960844 0.21795,-0.08364 0.47484,-0.862238 0.45182,-1.369406 -0.0788,-1.735543 1.15831,-1.084131 2.3285,1.226125 0.8555,1.688971 1.08064,1.770118 2.06015,0.742529 0.28046,-0.294224 0.53669,-0.481516 0.70472,-0.515123 0.1497,-0.02994 0.32562,-0.146788 0.40624,-0.269825 0.0782,-0.119359 0.22802,-0.302849 0.33293,-0.407755 0.17734,-0.177343 0.19074,-0.26439 0.19074,-1.239665 0,-2.014446 0.83085,-3.58095 1.89109,-3.565494 1.13696,0.01657 1.70808,0.685615 1.49671,1.753328 -0.20802,1.050804 -0.13703,1.353734 0.74707,3.187802 0.11688,0.242465 0.13657,0.520554 0.1159,1.637294 -0.0207,1.119767 0.003,1.453941 0.14202,1.993928 0.0918,0.356788 0.20499,0.927369 0.25154,1.267957 0.18461,1.350867 0.77227,1.277097 0.77386,-0.09714 2.5e-4,-0.225075 0.0732,-0.701325 0.16206,-1.058334 0.0889,-0.357008 0.18542,-1.030106 0.21455,-1.495773 0.0291,-0.465666 0.094,-1.094316 0.14416,-1.397 0.0689,-0.415809 0.0651,-0.684856 -0.0158,-1.100666 -0.22529,-1.158947 -0.0899,-2.088055 0.47485,-3.259667 0.15714,-0.325966 0.36241,-0.94197 0.45615,-1.368896 0.22235,-1.012605 0.84977,-1.860875 0.85054,-1.149937 4e-5,0.03492 0.0618,0.34925 0.13725,0.6985 0.10438,0.483168 0.13472,1.06013 0.12689,2.413 -0.007,1.290665 0.025,1.952048 0.11832,2.413 0.17986,0.887968 0.25265,3.073125 0.13735,4.122904 -0.0757,0.688966 -0.0696,1.12483 0.0303,2.159 0.0688,0.71267 0.12573,1.505312 0.12646,1.761429 0.002,0.539008 0.25731,1.065594 0.47672,0.981398 0.0718,-0.02754 0.17938,-0.05007 0.23915,-0.05007 0.46478,0 1.32849,-1.146759 1.53705,-2.040775 0.38943,-1.66937 0.86844,-1.891593 1.89642,-0.879799 1.47432,1.451105 2.9675,1.176048 3.83003,-0.705525 0.14242,-0.310695 0.36497,-0.679201 0.49455,-0.818901 0.44677,-0.481663 1.07232,-2.401617 1.1724,-3.598333 0.0667,-0.79695 0.32004,-1.656252 0.55879,-1.895002 0.17059,-0.170592 1.05062,-2.748384 1.27519,-3.735331 0.10597,-0.465667 0.2684,-1.125341 0.36096,-1.465943 0.0926,-0.340602 0.21134,-1.026402 0.26395,-1.524 0.0526,-0.497598 0.18962,-1.380974 0.30448,-1.963057 0.11486,-0.582083 0.2488,-1.401233 0.29765,-1.820333 0.0488,-0.4191 0.14279,-0.977846 0.20877,-1.241657 0.066,-0.26381 0.15812,-0.81626 0.20477,-1.227667 0.29048,-2.5616148 1.03038,-2.6310531 1.20418,-0.113009 0.16608,2.406135 0.16797,2.599408 0.0356,3.645669 -0.0733,0.579332 -0.17432,1.731867 -0.22453,2.561189 -0.0502,0.829321 -0.14766,1.800871 -0.21658,2.159 -0.0689,0.358128 -0.1598,1.241691 -0.20196,1.963475 -0.13319,2.280344 -0.34018,4.771133 -0.42568,5.122333 -0.0453,0.186266 -0.10402,1.462616 -0.13037,2.836333 -0.0279,1.452517 -0.0989,2.851954 -0.1698,3.344333 -0.091,0.632041 -0.10122,1.007636 -0.0404,1.481667 0.31531,2.4567 0.47018,2.954885 1.16556,3.749544 0.3393,0.387735 0.44474,0.58302 0.52446,0.971378 0.4203,2.047468 1.78355,2.785175 2.68458,1.452725 0.49704,-0.735025 0.53937,-0.624242 0.53937,1.411511 0,1.812842 0,1.812842 -18.9865,1.808472 -21.05589,-0.0048 -19.53683,0.07162 -19.53683,-0.98345 0,-0.160696 -0.0345,-0.270838 -0.0767,-0.244759 -0.0422,0.02608 -0.057,0.122964 -0.0328,0.215304 0.21328,0.8156 -0.19915,1.017275 -2.08035,1.017275 -1.62012,0 -1.62012,0 -1.62012,-8.011777 z"
         id="path96" />
      <path
         style="fill:#563326;stroke-width:0.0846667"
         d="m 174.95247,35.401194 c 0,-7.652481 0,-7.652481 0.33891,-7.958666 0.73375,-0.662896 0.96029,-0.184657 0.97795,2.064481 0.008,0.963314 0.0514,1.680419 0.11378,1.862667 0.38139,1.113691 0.53324,1.957453 0.60952,3.386666 0.0435,0.814917 0.10444,1.538817 0.13542,1.608667 0.031,0.06985 0.0853,0.98425 0.12074,2.032 0.0354,1.04775 0.0907,2.386779 0.1228,2.975619 0.0961,1.762105 0.15578,1.681048 -1.23762,1.681048 -1.1815,0 -1.1815,0 -1.1815,-7.652482 z m 5.11365,7.169488 c -0.15355,-0.528212 -0.1453,-0.907437 0.0862,-3.962006 0.13382,-1.765789 0.11446,-6.14672 -0.0301,-6.815667 -0.12355,-0.571641 -0.10626,-2.068636 0.0302,-2.612446 0.15608,-0.622077 0.20496,-1.049627 0.30176,-2.639252 0.044,-0.723083 0.14111,-1.577954 0.21573,-1.899712 0.11361,-0.489859 0.12696,-0.916392 0.0821,-2.622302 -0.0295,-1.120508 -0.0568,-2.216147 -0.0607,-2.434753 -0.009,-0.489811 0.19988,-0.852443 0.4684,-0.814222 0.26311,0.03745 0.38618,0.470146 0.39281,1.381021 0.0144,1.983233 0.36185,3.756407 1.01498,5.180353 0.56766,1.237593 0.64496,1.584161 0.85103,3.815599 0.0978,1.059327 0.27145,2.440398 0.38581,3.069048 0.11437,0.62865 0.24726,1.403817 0.29532,1.722594 0.29913,1.98427 1.1644,2.768597 1.23134,1.116167 0.0386,-0.95147 0.20826,-2.117287 0.37012,-2.542428 0.28545,-0.749799 0.41615,-1.331735 0.54399,-2.422212 0.20216,-1.724321 0.42335,-2.007352 1.06348,-1.360792 0.30162,0.304653 0.46527,0.377784 1.52927,0.683424 0.44994,0.129245 0.6084,0.878021 0.75524,3.568542 0.0685,1.255322 0.1068,1.491992 0.36981,2.286 0.42424,1.280749 0.7547,3.318048 0.77539,4.780371 0.009,0.651933 0.0479,1.495035 0.0859,1.873561 0.12704,1.264296 0.74939,1.132106 -5.32994,1.132106 -5.28769,0 -5.28769,0 -5.4281,-0.482994 z m 16.48786,0.09412 c -0.0111,-0.213882 0.0242,-0.58716 0.0785,-0.829506 0.0764,-0.341575 0.0743,-0.630061 -0.01,-1.283288 -0.13367,-1.041575 -0.11201,-1.916884 0.0573,-2.316749 0.0708,-0.167151 0.27636,-0.875412 0.45683,-1.573912 0.80347,-3.109849 1.0677,-3.173017 2.12496,-0.508 0.73471,1.851979 1.08889,2.138049 1.71937,1.388759 0.32522,-0.386502 0.45891,-0.680209 0.58635,-1.288147 0.0703,-0.335497 0.22147,-0.697359 0.39903,-0.955337 0.1572,-0.228401 0.37419,-0.592506 0.48218,-0.809123 0.26782,-0.537183 0.44853,-0.567281 1.21128,-0.201742 1.25208,0.600045 1.40628,1.233818 0.50178,2.062366 -0.55642,0.509689 -0.72647,0.892189 -0.6286,1.413882 0.28116,1.498733 1.69237,0.550349 1.75816,-1.181556 0.0287,-0.756232 0.0287,-0.756232 0.41359,-1.100667 0.21167,-0.189439 0.54393,-0.583761 0.73837,-0.876272 0.23686,-0.356332 0.54817,-0.673412 0.94337,-0.960854 0.68178,-0.495884 0.79954,-0.684754 0.92354,-1.481178 0.14221,-0.913425 0.31857,-1.444297 0.80282,-2.416617 0.49015,-0.98417 0.81037,-2.173985 1.14271,-4.245909 0.17377,-1.083355 0.3627,-1.612488 0.71053,-1.989979 0.0995,-0.108006 0.31457,-0.469486 0.47788,-0.803288 0.39176,-0.800761 0.89806,-0.830375 0.67117,-0.03926 -0.0367,0.127952 -0.0353,0.770685 0.003,1.428294 0.0384,0.657609 0.0378,1.307474 -0.001,1.444144 -0.0392,0.136671 -0.0958,1.532641 -0.12588,3.102154 -0.0331,1.727334 -0.10259,3.187838 -0.17615,3.700329 -0.0668,0.465666 -0.16018,1.532466 -0.20743,2.370666 -0.0472,0.8382 -0.12189,2.1717 -0.16588,2.963333 -0.044,0.791634 -0.11955,1.629834 -0.16791,1.862667 -0.21269,1.024126 -0.0769,2.207952 0.32651,2.846928 0.46972,0.743955 1.31982,0.666739 -7.34031,0.666739 -7.68619,0 -7.68619,0 -7.70632,-0.388879 z m -3.09722,-9.376272 c -0.16038,-0.117268 -0.36747,-0.73805 -0.82054,-2.459611 -0.26248,-0.997351 -0.264,-1.015072 -0.16773,-1.964631 0.0726,-0.71627 0.073,-1.163325 0.001,-1.770613 -0.17763,-1.506196 0.39422,-2.206383 1.4212,-1.740121 0.57805,0.262443 0.60298,0.369683 0.61168,2.631518 0.007,1.939817 0.0638,2.793549 0.26659,4.038378 0.13614,0.835814 0.0654,1.167843 -0.2739,1.286133 -0.36064,0.125721 -0.85152,0.115771 -1.03864,-0.02105 z"
         id="path94" />
      <path
         style="fill:#45281d;stroke-width:0.0846667"
         d="m 181.04161,42.829391 c -0.19635,-0.366553 -0.14477,-3.324921 0.0899,-5.156389 0.16899,-1.318857 0.14743,-3.868241 -0.0514,-6.080551 -0.14576,-1.621668 0.0285,-2.333902 0.53842,-2.200555 0.22096,0.05778 0.22352,0.0644 0.48055,1.238178 0.3799,1.734953 0.47473,2.282999 0.59856,3.45928 0.0675,0.641211 0.17623,1.293848 0.2416,1.450305 0.19697,0.471408 0.38545,1.328851 0.47922,2.180017 0.0487,0.442383 0.2214,1.490133 0.3837,2.328333 0.33101,1.709433 0.47225,2.715407 0.40563,2.889014 -0.0989,0.257625 -3.02378,0.158194 -3.16617,-0.107632 z m 20.52864,0.114218 c -0.10419,-0.111954 0.19565,-0.897424 0.44977,-1.178222 0.23466,-0.259298 0.77058,-0.200941 1.10166,0.119965 0.81926,0.794052 2.31472,-0.220836 3.03803,-2.061745 0.17107,-0.435379 0.45618,-1.039248 0.63359,-1.341931 0.17742,-0.302684 0.42698,-0.797984 0.55459,-1.100667 0.22167,-0.525777 0.40119,-0.816789 1.42546,-2.310763 0.44692,-0.651857 0.50582,-0.801534 1.13975,-2.896237 0.26211,-0.866104 0.83128,-1.391061 0.96282,-0.888038 0.0431,0.164875 -0.13969,3.080757 -0.23615,3.766705 -0.0262,0.186266 -0.0812,1.043516 -0.12212,1.905 -0.0469,0.985583 -0.14163,1.895948 -0.25553,2.455333 -0.1416,0.695338 -0.17889,1.16566 -0.17122,2.159 0.005,0.6985 0.007,1.317625 0.004,1.375833 -0.008,0.150695 -8.38437,0.146535 -8.52468,-0.0042 z"
         id="path92" />
      <path
         style="fill:#3d241c;stroke-width:0.0846667"
         d="m 182.00566,42.932051 c -0.54874,-0.62493 -0.67528,-2.444809 -0.31438,-4.521483 0.31568,-1.816509 0.64707,-1.705184 1.0416,0.349907 0.37814,1.969784 0.49605,3.363837 0.35773,4.229701 -0.0184,0.115177 -0.97791,0.06377 -1.08495,-0.05812 z m 25.08239,-0.03327 c -0.0682,-0.214942 0.48727,-2.018529 0.89921,-2.919587 0.18762,-0.410384 0.43101,-1.109188 0.54089,-1.552899 0.3865,-1.560862 1.01694,-2.044771 1.16915,-0.897401 0.0566,0.426611 0.0129,0.739416 -0.27505,1.968785 -0.0927,0.395816 -0.21156,1.291166 -0.26412,1.989666 -0.13044,1.733455 -0.013,1.566334 -1.10099,1.566334 -0.81699,0 -0.92543,-0.01733 -0.96909,-0.154898 z"
         id="path90" />
    </g>
  </g>
</svg>
